<?xml version="1.0" encoding="UTF-8"?>
<svg version="1.1" xmlns="http://www.w3.org/2000/svg" width="1638" height="1638">
<path d="M0 0 C540.54 0 1081.08 0 1638 0 C1638 540.54 1638 1081.08 1638 1638 C1097.46 1638 556.92 1638 0 1638 C0 1097.46 0 556.92 0 0 Z " fill="#330B17" transform="translate(0,0)"/>
<path d="M0 0 C2.50304402 1.26320974 3.54632243 1.68666934 6.41015625 1.63671875 C9.12327379 0.51847436 11.31904625 -0.88094802 13.72265625 -2.56640625 C28.31101616 -12.16037501 44.05832072 -13.91084447 61.0703125 -11.92578125 C78.73389962 -8.13552047 99.62222522 4.53294721 109.72265625 19.68359375 C112.338725 19.97024488 114.79003172 20.0938456 117.41015625 20.12109375 C138.02963794 20.90333975 159.63532459 30.41179353 174.72265625 44.68359375 C174.72265625 45.34359375 174.72265625 46.00359375 174.72265625 46.68359375 C175.71265625 47.01359375 176.70265625 47.34359375 177.72265625 47.68359375 C179.44140625 49.79296875 179.44140625 49.79296875 181.22265625 52.43359375 C181.81046875 53.2946875 182.39828125 54.15578125 183.00390625 55.04296875 C185.80730846 59.35001396 188.15151592 63.40141023 189.91015625 68.24609375 C190.25433594 69.17550781 190.59851563 70.10492187 190.953125 71.0625 C191.72265625 73.68359375 191.72265625 73.68359375 191.72265625 77.68359375 C192.43164062 77.77898437 193.140625 77.874375 193.87109375 77.97265625 C205.47023645 80.86449731 216.76063833 92.75240584 223.09765625 102.37109375 C230.11834632 115.51447865 231.32892597 126.71276916 230.36279297 141.45483398 C229.84675427 147.30359088 229.84675427 147.30359088 232.12524414 152.39892578 C233.9166665 153.6747711 233.9166665 153.6747711 235.87402344 154.67700195 C238.75041557 156.24321494 240.41437311 158.6324311 242.41015625 161.18359375 C243.13589844 162.10140625 243.86164062 163.01921875 244.609375 163.96484375 C245.65544922 165.310625 245.65544922 165.310625 246.72265625 166.68359375 C247.41875 167.50085938 248.11484375 168.318125 248.83203125 169.16015625 C250.86598683 171.87489862 252.04516281 174.40745531 253.28515625 177.55859375 C254.58283391 180.83065215 255.88047795 184.01092765 257.41015625 187.18359375 C260.75112076 196.09283245 261.05719492 205.57481063 260.97265625 214.99609375 C260.96661377 216.0840625 260.96057129 217.17203125 260.9543457 218.29296875 C260.8150185 229.65531356 260.27619769 241.11726786 255.72265625 251.68359375 C255.29597656 252.71613281 254.86929688 253.74867188 254.4296875 254.8125 C247.73523121 269.60642193 236.51224067 282.07642871 222.72265625 290.68359375 C219.34375 291.9453125 219.34375 291.9453125 216.72265625 292.68359375 C216.76648437 293.67875 216.8103125 294.67390625 216.85546875 295.69921875 C216.71567761 299.89295281 215.8862411 303.48023276 214.59765625 307.43359375 C214.2577063 308.4851062 214.2577063 308.4851062 213.91088867 309.55786133 C207.00612326 330.10725356 192.51690302 345.35480942 173.72265625 355.68359375 C159.44329312 362.74812077 143.93779811 363.86318438 128.28515625 363.87109375 C127.01349609 363.88333984 125.74183594 363.89558594 124.43164062 363.90820312 C116.33986811 363.92078753 109.42556874 363.25123125 101.72265625 360.68359375 C102.38265625 362.66359375 103.04265625 364.64359375 103.72265625 366.68359375 C104.38265625 366.68359375 105.04265625 366.68359375 105.72265625 366.68359375 C109.37164827 374.2177585 112.70088492 381.54837103 114.72265625 389.68359375 C115.00109375 390.740625 115.27953125 391.79765625 115.56640625 392.88671875 C117.64448489 401.46841386 118.61082963 409.87106824 117.72265625 418.68359375 C117.06265625 419.34359375 116.40265625 420.00359375 115.72265625 420.68359375 C112.42550832 420.35387896 111.09997235 420.06090985 108.72265625 417.68359375 C108.19189453 415.8269043 108.19189453 415.8269043 107.79296875 413.5703125 C107.64005371 412.74136475 107.48713867 411.91241699 107.32958984 411.05834961 C107.17055176 410.17155518 107.01151367 409.28476074 106.84765625 408.37109375 C102.48633269 385.77895799 94.46277997 365.09907353 75.72265625 350.68359375 C76.47265625 345.93359375 76.47265625 345.93359375 78.72265625 343.68359375 C85.60413402 344.21807746 92.49573488 346.70209333 99.13671875 348.51171875 C109.32800255 351.2329516 118.7800868 351.87012199 129.29614258 351.86889648 C131.41572683 351.87109954 133.53480316 351.88935557 135.65429688 351.90820312 C137.01432116 351.91113497 138.37434788 351.91312116 139.734375 351.9140625 C140.95600342 351.91817139 142.17763184 351.92228027 143.4362793 351.92651367 C146.66109367 351.68814429 148.81059428 351.02182701 151.72265625 349.68359375 C153.53027518 349.26603647 155.34332684 348.87155503 157.16015625 348.49609375 C167.66597742 345.92800413 176.82213571 341.04544244 184.72265625 333.68359375 C185.38265625 333.68359375 186.04265625 333.68359375 186.72265625 333.68359375 C186.9753125 333.12027344 187.22796875 332.55695313 187.48828125 331.9765625 C188.89107167 329.37074612 190.60998317 327.29555645 192.47265625 324.99609375 C197.73673609 317.91020122 200.12089187 310.03804823 202.72265625 301.68359375 C203.05265625 300.69359375 203.38265625 299.70359375 203.72265625 298.68359375 C202.88992188 298.90015625 202.0571875 299.11671875 201.19921875 299.33984375 C190.77023324 301.62448966 180.54239716 301.96773276 169.91015625 301.93359375 C168.86362885 301.93202271 168.86362885 301.93202271 167.79595947 301.93041992 C159.58831027 301.90446536 151.41352156 301.64071471 143.21875 301.1875 C131.34880041 300.54321373 119.48356189 300.39789201 107.59765625 300.37109375 C106.47635315 300.36847534 105.35505005 300.36585693 104.19976807 300.36315918 C87.66136433 300.35902937 71.91327925 301.0489641 55.72265625 304.68359375 C54.26892207 304.96711785 52.81452471 305.24727037 51.359375 305.5234375 C32.59350171 309.29703397 13.74013429 315.95668193 -3.27734375 324.68359375 C1.35036126 337.87255304 14.55180507 344.48211202 25.97265625 350.99609375 C38.30548133 358.03308702 49.43680515 365.82856364 59.72265625 375.68359375 C60.78419922 376.66779297 60.78419922 376.66779297 61.8671875 377.671875 C73.23853192 388.52139865 82.97198187 404.42887311 85.22265625 420.18359375 C84.72265625 422.68359375 84.72265625 422.68359375 82.97265625 424.62109375 C80.72265625 425.68359375 80.72265625 425.68359375 78.83203125 425.68359375 C75.45261129 424.08149836 74.32164262 420.95801113 72.72265625 417.74609375 C72.36945313 417.06385742 72.01625 416.38162109 71.65234375 415.67871094 C69.77597774 411.99721134 68.1301494 408.32305026 66.72265625 404.43359375 C59.40430551 385.16300205 40.29234945 373.18038828 23.109375 363.6171875 C11.35945077 356.90875325 0.74750029 348.73095867 -9.27734375 339.68359375 C-10.06109375 339.00296875 -10.84484375 338.32234375 -11.65234375 337.62109375 C-13.71531976 335.16139158 -14.43951852 332.75561959 -15.27734375 329.68359375 C-16.22609375 330.09609375 -17.17484375 330.50859375 -18.15234375 330.93359375 C-19.52676947 331.51827889 -20.90183582 332.10145914 -22.27734375 332.68359375 C-23.06109375 333.02003906 -23.84484375 333.35648438 -24.65234375 333.703125 C-29.57830912 335.75817618 -34.31292285 337.30188367 -39.5625 338.2890625 C-41.29966925 338.52906484 -41.29966925 338.52906484 -42.27734375 339.68359375 C-65.41999366 347.57499204 -92.28176533 343.29856959 -113.90234375 332.99609375 C-125.01854553 327.25698593 -133.75370941 318.99141123 -139.27734375 307.68359375 C-139.74914062 306.75160156 -140.2209375 305.81960938 -140.70703125 304.859375 C-144.49659487 297.0126232 -145.42866061 290.30865451 -145.27734375 281.68359375 C-146.29175537 281.84061768 -147.30616699 281.9976416 -148.35131836 282.15942383 C-154.49709253 282.97995596 -160.648178 283.14040576 -166.83984375 283.37109375 C-168.14115234 283.43103516 -169.44246094 283.49097656 -170.78320312 283.55273438 C-172.66942383 283.62331055 -172.66942383 283.62331055 -174.59375 283.6953125 C-175.73271729 283.74131592 -176.87168457 283.78731934 -178.04516602 283.8347168 C-181.47858287 283.67418465 -184.07068388 282.87767624 -187.27734375 281.68359375 C-189.58501284 281.24095313 -191.8981046 280.82600559 -194.21484375 280.43359375 C-218.26044787 275.91013375 -242.78225558 261.45818814 -256.90234375 241.37109375 C-260.54683259 236.02812125 -263.70261038 230.61903173 -266.27734375 224.68359375 C-266.69628906 223.72324219 -267.11523438 222.76289062 -267.546875 221.7734375 C-279.41981888 192.82641119 -277.81012289 160.85812995 -266.30712891 131.96728516 C-263.84601954 126.5094338 -260.26530433 122.12315266 -256.27734375 117.68359375 C-255.64054688 116.89082031 -255.00375 116.09804688 -254.34765625 115.28125 C-245.78176822 104.88489212 -234.53942713 97.9363595 -222.27734375 92.68359375 C-221.61734375 92.68359375 -220.95734375 92.68359375 -220.27734375 92.68359375 C-220.05820312 91.69101562 -219.8390625 90.6984375 -219.61328125 89.67578125 C-213.62252244 63.55607285 -199.87498934 43.29092 -177.10644531 28.76318359 C-172.09942375 25.80789137 -166.74777273 23.62746767 -161.27734375 21.68359375 C-160.28605469 21.30589844 -159.29476562 20.92820312 -158.2734375 20.5390625 C-151.18343693 18.57229221 -143.14487863 19.44405308 -135.859375 19.55664062 C-127.73133971 19.62072504 -127.73133971 19.62072504 -121.18359375 15.37890625 C-120.19958639 14.15928931 -119.22908166 12.92855595 -118.27734375 11.68359375 C-84.37608966 -16.79139253 -38.54103152 -20.98876208 0 0 Z " fill="#3C0E23" transform="translate(826.27734375,610.31640625)"/>
<path d="M0 0 C2.50304402 1.26320974 3.54632243 1.68666934 6.41015625 1.63671875 C9.12327379 0.51847436 11.31904625 -0.88094802 13.72265625 -2.56640625 C28.31101616 -12.16037501 44.05832072 -13.91084447 61.0703125 -11.92578125 C78.73389962 -8.13552047 99.62222522 4.53294721 109.72265625 19.68359375 C112.338725 19.97024488 114.79003172 20.0938456 117.41015625 20.12109375 C138.02963794 20.90333975 159.63532459 30.41179353 174.72265625 44.68359375 C174.72265625 45.34359375 174.72265625 46.00359375 174.72265625 46.68359375 C175.71265625 47.01359375 176.70265625 47.34359375 177.72265625 47.68359375 C179.44140625 49.79296875 179.44140625 49.79296875 181.22265625 52.43359375 C181.81046875 53.2946875 182.39828125 54.15578125 183.00390625 55.04296875 C185.80730846 59.35001396 188.15151592 63.40141023 189.91015625 68.24609375 C190.25433594 69.17550781 190.59851563 70.10492187 190.953125 71.0625 C191.72265625 73.68359375 191.72265625 73.68359375 191.72265625 77.68359375 C192.43164062 77.77898437 193.140625 77.874375 193.87109375 77.97265625 C205.47023645 80.86449731 216.76063833 92.75240584 223.09765625 102.37109375 C230.11834632 115.51447865 231.32892597 126.71276916 230.36279297 141.45483398 C229.84675427 147.30359088 229.84675427 147.30359088 232.12524414 152.39892578 C233.9166665 153.6747711 233.9166665 153.6747711 235.87402344 154.67700195 C238.75041557 156.24321494 240.41437311 158.6324311 242.41015625 161.18359375 C243.13589844 162.10140625 243.86164062 163.01921875 244.609375 163.96484375 C245.65544922 165.310625 245.65544922 165.310625 246.72265625 166.68359375 C247.41875 167.50085938 248.11484375 168.318125 248.83203125 169.16015625 C250.86598683 171.87489862 252.04516281 174.40745531 253.28515625 177.55859375 C254.58283391 180.83065215 255.88047795 184.01092765 257.41015625 187.18359375 C260.75112076 196.09283245 261.05719492 205.57481063 260.97265625 214.99609375 C260.96661377 216.0840625 260.96057129 217.17203125 260.9543457 218.29296875 C260.8150185 229.65531356 260.27619769 241.11726786 255.72265625 251.68359375 C255.29597656 252.71613281 254.86929688 253.74867188 254.4296875 254.8125 C247.73523121 269.60642193 236.51224067 282.07642871 222.72265625 290.68359375 C219.34375 291.9453125 219.34375 291.9453125 216.72265625 292.68359375 C216.76648437 293.67875 216.8103125 294.67390625 216.85546875 295.69921875 C216.71567761 299.89295281 215.8862411 303.48023276 214.59765625 307.43359375 C214.2577063 308.4851062 214.2577063 308.4851062 213.91088867 309.55786133 C207.00612326 330.10725356 192.51690302 345.35480942 173.72265625 355.68359375 C159.44329312 362.74812077 143.93779811 363.86318438 128.28515625 363.87109375 C127.01349609 363.88333984 125.74183594 363.89558594 124.43164062 363.90820312 C116.33986811 363.92078753 109.42556874 363.25123125 101.72265625 360.68359375 C102.38265625 362.66359375 103.04265625 364.64359375 103.72265625 366.68359375 C104.38265625 366.68359375 105.04265625 366.68359375 105.72265625 366.68359375 C109.37164827 374.2177585 112.70088492 381.54837103 114.72265625 389.68359375 C115.00109375 390.740625 115.27953125 391.79765625 115.56640625 392.88671875 C117.64448489 401.46841386 118.61082963 409.87106824 117.72265625 418.68359375 C117.06265625 419.34359375 116.40265625 420.00359375 115.72265625 420.68359375 C112.42550832 420.35387896 111.09997235 420.06090985 108.72265625 417.68359375 C108.19189453 415.8269043 108.19189453 415.8269043 107.79296875 413.5703125 C107.64005371 412.74136475 107.48713867 411.91241699 107.32958984 411.05834961 C107.17055176 410.17155518 107.01151367 409.28476074 106.84765625 408.37109375 C102.48633269 385.77895799 94.46277997 365.09907353 75.72265625 350.68359375 C76.47265625 345.93359375 76.47265625 345.93359375 78.72265625 343.68359375 C85.60413402 344.21807746 92.49573488 346.70209333 99.13671875 348.51171875 C109.32800255 351.2329516 118.7800868 351.87012199 129.29614258 351.86889648 C131.41572683 351.87109954 133.53480316 351.88935557 135.65429688 351.90820312 C137.01432116 351.91113497 138.37434788 351.91312116 139.734375 351.9140625 C140.95600342 351.91817139 142.17763184 351.92228027 143.4362793 351.92651367 C146.66109367 351.68814429 148.81059428 351.02182701 151.72265625 349.68359375 C153.53027518 349.26603647 155.34332684 348.87155503 157.16015625 348.49609375 C167.66597742 345.92800413 176.82213571 341.04544244 184.72265625 333.68359375 C185.38265625 333.68359375 186.04265625 333.68359375 186.72265625 333.68359375 C186.9753125 333.12027344 187.22796875 332.55695313 187.48828125 331.9765625 C188.89107167 329.37074612 190.60998317 327.29555645 192.47265625 324.99609375 C197.73673609 317.91020122 200.12089187 310.03804823 202.72265625 301.68359375 C203.05265625 300.69359375 203.38265625 299.70359375 203.72265625 298.68359375 C202.88992188 298.90015625 202.0571875 299.11671875 201.19921875 299.33984375 C190.77023324 301.62448966 180.54239716 301.96773276 169.91015625 301.93359375 C168.86362885 301.93202271 168.86362885 301.93202271 167.79595947 301.93041992 C159.58831027 301.90446536 151.41352156 301.64071471 143.21875 301.1875 C131.34880041 300.54321373 119.48356189 300.39789201 107.59765625 300.37109375 C106.47635315 300.36847534 105.35505005 300.36585693 104.19976807 300.36315918 C87.66136433 300.35902937 71.91327925 301.0489641 55.72265625 304.68359375 C54.26892207 304.96711785 52.81452471 305.24727037 51.359375 305.5234375 C32.59350171 309.29703397 13.74013429 315.95668193 -3.27734375 324.68359375 C1.35036126 337.87255304 14.55180507 344.48211202 25.97265625 350.99609375 C38.30548133 358.03308702 49.43680515 365.82856364 59.72265625 375.68359375 C60.78419922 376.66779297 60.78419922 376.66779297 61.8671875 377.671875 C73.23853192 388.52139865 82.97198187 404.42887311 85.22265625 420.18359375 C84.72265625 422.68359375 84.72265625 422.68359375 82.97265625 424.62109375 C80.72265625 425.68359375 80.72265625 425.68359375 78.83203125 425.68359375 C75.45261129 424.08149836 74.32164262 420.95801113 72.72265625 417.74609375 C72.36945313 417.06385742 72.01625 416.38162109 71.65234375 415.67871094 C69.77597774 411.99721134 68.1301494 408.32305026 66.72265625 404.43359375 C59.40430551 385.16300205 40.29234945 373.18038828 23.109375 363.6171875 C11.35945077 356.90875325 0.74750029 348.73095867 -9.27734375 339.68359375 C-10.06109375 339.00296875 -10.84484375 338.32234375 -11.65234375 337.62109375 C-13.71531976 335.16139158 -14.43951852 332.75561959 -15.27734375 329.68359375 C-16.22609375 330.09609375 -17.17484375 330.50859375 -18.15234375 330.93359375 C-19.52676947 331.51827889 -20.90183582 332.10145914 -22.27734375 332.68359375 C-23.06109375 333.02003906 -23.84484375 333.35648438 -24.65234375 333.703125 C-29.57830912 335.75817618 -34.31292285 337.30188367 -39.5625 338.2890625 C-41.29966925 338.52906484 -41.29966925 338.52906484 -42.27734375 339.68359375 C-65.41999366 347.57499204 -92.28176533 343.29856959 -113.90234375 332.99609375 C-125.01854553 327.25698593 -133.75370941 318.99141123 -139.27734375 307.68359375 C-139.74914062 306.75160156 -140.2209375 305.81960938 -140.70703125 304.859375 C-144.49659487 297.0126232 -145.42866061 290.30865451 -145.27734375 281.68359375 C-146.29175537 281.84061768 -147.30616699 281.9976416 -148.35131836 282.15942383 C-154.49709253 282.97995596 -160.648178 283.14040576 -166.83984375 283.37109375 C-168.14115234 283.43103516 -169.44246094 283.49097656 -170.78320312 283.55273438 C-172.66942383 283.62331055 -172.66942383 283.62331055 -174.59375 283.6953125 C-175.73271729 283.74131592 -176.87168457 283.78731934 -178.04516602 283.8347168 C-181.47858287 283.67418465 -184.07068388 282.87767624 -187.27734375 281.68359375 C-189.58501284 281.24095313 -191.8981046 280.82600559 -194.21484375 280.43359375 C-218.26044787 275.91013375 -242.78225558 261.45818814 -256.90234375 241.37109375 C-260.54683259 236.02812125 -263.70261038 230.61903173 -266.27734375 224.68359375 C-266.69628906 223.72324219 -267.11523438 222.76289062 -267.546875 221.7734375 C-279.41981888 192.82641119 -277.81012289 160.85812995 -266.30712891 131.96728516 C-263.84601954 126.5094338 -260.26530433 122.12315266 -256.27734375 117.68359375 C-255.64054688 116.89082031 -255.00375 116.09804688 -254.34765625 115.28125 C-245.78176822 104.88489212 -234.53942713 97.9363595 -222.27734375 92.68359375 C-221.61734375 92.68359375 -220.95734375 92.68359375 -220.27734375 92.68359375 C-220.05820312 91.69101562 -219.8390625 90.6984375 -219.61328125 89.67578125 C-213.62252244 63.55607285 -199.87498934 43.29092 -177.10644531 28.76318359 C-172.09942375 25.80789137 -166.74777273 23.62746767 -161.27734375 21.68359375 C-160.28605469 21.30589844 -159.29476562 20.92820312 -158.2734375 20.5390625 C-151.18343693 18.57229221 -143.14487863 19.44405308 -135.859375 19.55664062 C-127.73133971 19.62072504 -127.73133971 19.62072504 -121.18359375 15.37890625 C-120.19958639 14.15928931 -119.22908166 12.92855595 -118.27734375 11.68359375 C-84.37608966 -16.79139253 -38.54103152 -20.98876208 0 0 Z M-113.27734375 22.68359375 C-111.81057097 25.6171393 -109.67910333 25.98042738 -106.71484375 27.30859375 C-95.06531318 33.08510654 -89.32811961 42.02382393 -84.27734375 53.68359375 C-84.27734375 55.00359375 -84.27734375 56.32359375 -84.27734375 57.68359375 C-86.91734375 58.34359375 -89.55734375 59.00359375 -92.27734375 59.68359375 C-92.48359375 58.89984375 -92.68984375 58.11609375 -92.90234375 57.30859375 C-97.39604336 45.46156752 -103.85305567 38.92118654 -115.23828125 33.76171875 C-131.697419 27.92274443 -150.50263814 29.08156295 -166.24072266 36.2980957 C-185.76359956 45.69623335 -197.80951847 60.92510715 -205.5 80.8515625 C-206.26270426 83.63025892 -206.33712097 85.82540132 -206.27734375 88.68359375 C-205.58697021 88.70341309 -204.89659668 88.72323242 -204.18530273 88.74365234 C-201.02812904 88.83947668 -197.87156553 88.94892189 -194.71484375 89.05859375 C-193.62880859 89.08953125 -192.54277344 89.12046875 -191.42382812 89.15234375 C-185.70864238 89.36080037 -180.68226009 89.77597622 -175.27734375 91.68359375 C-175.15234375 97.43359375 -175.15234375 97.43359375 -176.27734375 99.68359375 C-177.08252441 99.66264648 -177.88770508 99.64169922 -178.71728516 99.62011719 C-199.4397131 98.66627363 -199.4397131 98.66627363 -219.27734375 103.68359375 C-220.31246094 104.11929688 -221.34757813 104.555 -222.4140625 105.00390625 C-240.49572895 113.30740678 -252.01510546 127.68216256 -259.1015625 145.921875 C-262.47804033 156.72436055 -263.77517802 166.67649658 -263.65234375 177.99609375 C-263.64702637 178.67779633 -263.64170898 179.3594989 -263.63623047 180.06185913 C-263.43359839 202.23091275 -258.59814388 221.30486378 -244.27734375 238.68359375 C-243.82230469 239.29976562 -243.36726562 239.9159375 -242.8984375 240.55078125 C-231.17145397 255.74335096 -209.90518764 266.64806942 -191.12109375 269.3828125 C-175.86097623 270.99686339 -160.60641371 270.79294291 -145.27734375 270.68359375 C-145.03951172 269.26820313 -145.03951172 269.26820313 -144.796875 267.82421875 C-140.98304621 246.83762496 -131.48285523 230.73912388 -113.96484375 218.37109375 C-112.76055842 217.54146086 -111.55613865 216.71202308 -110.3515625 215.8828125 C-108.05757206 214.24174945 -106.14514493 212.7671698 -104.27734375 210.68359375 C-104.84582031 210.1009375 -105.41429687 209.51828125 -106 208.91796875 C-118.0897491 196.08144049 -125.49843996 181.24342397 -125.40234375 163.43359375 C-125.40621094 162.70140625 -125.41007813 161.96921875 -125.4140625 161.21484375 C-125.40405409 155.81030409 -125.40405409 155.81030409 -124.27734375 154.68359375 C-122.27776011 154.64278592 -120.27689121 154.64105019 -118.27734375 154.68359375 C-116.02316996 158.28314399 -116.11230023 161.24770615 -116.08984375 165.43359375 C-115.61023666 177.94979168 -109.73983262 189.59012983 -101.27734375 198.68359375 C-100.4575 199.75480469 -100.4575 199.75480469 -99.62109375 200.84765625 C-97.56270343 203.18591543 -96.15351543 204.44536274 -93.27734375 205.68359375 C-86.7661066 205.71570044 -80.46752626 204.74698792 -74.27734375 202.68359375 C-72.37937772 202.47340234 -70.48082128 202.26712122 -68.57958984 202.08886719 C-40.41104586 199.42435592 -17.06215835 190.28475304 6.546875 174.87011719 C12.46569182 171.0419198 16.03168501 170.56132617 23.05859375 170.69140625 C24.53124272 170.7089553 26.00389948 170.72586033 27.4765625 170.7421875 C29.77122275 170.77280889 32.06547812 170.80793394 34.35986328 170.85498047 C53.41082449 171.22429773 71.56096568 167.99111877 86.05859375 154.51171875 C93.30181757 146.7030388 96.2368395 138.92817186 98.72265625 128.68359375 C101.055604 128.64117652 103.38968192 128.64266438 105.72265625 128.68359375 C106.72265625 129.68359375 106.72265625 129.68359375 107.03515625 133.12109375 C106.89157857 142.05481622 101.92927808 149.74143131 96.72265625 156.68359375 C95.95308594 157.72 95.95308594 157.72 95.16796875 158.77734375 C84.95283038 171.48517139 68.50528195 177.73710109 52.72265625 179.68359375 C49.74856102 179.88065281 46.78481342 179.93618012 43.8046875 179.94921875 C43.04664825 179.95266296 42.28860901 179.95610718 41.50759888 179.95965576 C38.39940289 179.96137723 35.29258063 179.94665415 32.18481445 179.89306641 C21.10534934 179.73374931 13.95473832 180.91680748 4.72265625 187.68359375 C3.60033928 188.40928465 2.47380871 189.12858601 1.33984375 189.8359375 C0.43492187 190.42503906 -0.47 191.01414062 -1.40234375 191.62109375 C-19.8139063 202.99034401 -39.21061511 207.91467341 -60.38769531 211.23095703 C-81.23716793 214.49683421 -98.96415829 218.44459338 -115.27734375 232.68359375 C-115.90382813 233.2146875 -116.5303125 233.74578125 -117.17578125 234.29296875 C-128.02638365 244.21071393 -134.42514557 258.70241149 -135.55078125 273.20703125 C-135.91071393 286.85678585 -133.30334369 299.93729184 -124.27734375 310.68359375 C-123.7771875 311.29332031 -123.27703125 311.90304687 -122.76171875 312.53125 C-112.51841138 323.84364042 -94.38132594 330.80117071 -79.24707031 331.8203125 C-58.07324585 332.77071291 -38.59418062 327.93117616 -19.41845703 319.10864258 C18.89514928 301.72666527 57.70709182 288.75109297 100.26675034 289.38293457 C103.82743548 289.43524794 107.38750669 289.46035734 110.94851685 289.47949219 C118.49851139 289.5245738 126.04798435 289.60158584 133.59765625 289.68359375 C142.38413243 289.77874454 151.17031311 289.85998564 159.95718765 289.90734863 C163.43027876 289.9328802 166.90242309 289.98286529 170.37521362 290.03417969 C185.85990829 290.17792722 201.86240463 289.53024256 215.66015625 281.62109375 C216.35488037 281.2353418 217.04960449 280.84958984 217.76538086 280.45214844 C232.31211688 271.98552643 242.92893222 256.99678693 247.52612305 240.86401367 C249.4597558 232.99289725 250.26916401 225.59315412 250.22265625 217.49609375 C250.21693604 216.32353027 250.21121582 215.1509668 250.20532227 213.94287109 C249.79753346 193.92140184 242.96781931 177.34237164 229.078125 162.8515625 C227.01094455 160.45785538 227.01094455 160.45785538 224.72265625 160.68359375 C224.28953125 161.59109375 223.85640625 162.49859375 223.41015625 163.43359375 C220.64265625 168.76359375 220.64265625 168.76359375 218.72265625 170.68359375 C216.09765625 170.99609375 216.09765625 170.99609375 213.72265625 170.68359375 C212.72265625 169.68359375 212.72265625 169.68359375 212.625 167.8359375 C212.65755208 165.78515625 212.69010417 163.734375 212.72265625 161.68359375 C213.38265625 161.68359375 214.04265625 161.68359375 214.72265625 161.68359375 C221.20408926 141.68374332 221.31168621 126.8024425 212.3046875 107.671875 C205.97240733 96.08930091 195.80384934 90.46528039 183.96484375 85.53515625 C179.60993387 84.39133655 175.51838441 84.38656101 171.03515625 84.43359375 C170.14538086 84.43746094 169.25560547 84.44132813 168.33886719 84.4453125 C162.73969742 84.51890509 157.47371096 85.01616676 151.99609375 86.234375 C148.50568138 86.92406129 145.26915351 86.88062138 141.72265625 86.68359375 C140.72265625 85.68359375 140.72265625 85.68359375 140.34765625 83.30859375 C140.47140625 82.44234375 140.59515625 81.57609375 140.72265625 80.68359375 C150.59103117 73.34971949 167.89732435 75.13566881 179.72265625 74.68359375 C173.2037014 57.93309541 160.20475449 44.02344777 143.72265625 36.68359375 C129.52274213 30.59521513 111.11464381 30.16799556 96.41015625 34.74609375 C77.91974061 42.19217789 64.50961341 54.09744377 56.125 72.1171875 C52.47039843 81.16312551 50.68058642 89.94829708 50.06640625 99.65234375 C49.72265625 101.68359375 49.72265625 101.68359375 47.72265625 103.68359375 C45.09765625 103.80859375 45.09765625 103.80859375 42.72265625 103.68359375 C38.86566952 95.96962029 42.03425131 83.23813005 44.33203125 75.51953125 C48.17465101 64.41034546 53.76465833 54.36219778 61.72265625 45.68359375 C62.64304687 44.64332031 62.64304687 44.64332031 63.58203125 43.58203125 C73.18427162 33.30525333 84.65552541 28.06141423 97.72265625 23.68359375 C91.05808738 12.49663887 78.43577544 4.83009715 66.2265625 0.875 C50.53417644 -2.67475972 33.46067462 -1.43256487 19.41015625 6.49609375 C2.34241641 17.61765326 -6.82636334 34.69946667 -11.22265625 54.2734375 C-12.94318102 59.83646761 -16.16752248 63.73424114 -20.15234375 67.87109375 C-33.5690986 82.83114879 -37.68079959 103.28163901 -37.46484375 122.80859375 C-37.46419922 123.92363281 -37.46355469 125.03867187 -37.46289062 126.1875 C-37.42980015 132.43056935 -37.09519142 138.49412261 -36.27734375 144.68359375 C-38.91734375 144.68359375 -41.55734375 144.68359375 -44.27734375 144.68359375 C-46.65168866 136.53755557 -47.79779758 129.03794737 -47.71484375 120.55859375 C-47.7087207 119.47618408 -47.70259766 118.39377441 -47.69628906 117.27856445 C-47.51152804 107.66743809 -45.95405732 98.88240672 -43.27734375 89.68359375 C-42.98859375 88.57886719 -42.69984375 87.47414063 -42.40234375 86.3359375 C-39.55616946 76.48868269 -34.27867338 68.42737416 -26.77734375 61.49609375 C-21.04101771 55.45422457 -19.47159552 47.78487068 -17.1628418 39.95117188 C-13.98847471 29.27830612 -9.59389701 21.10871568 -2.27734375 12.68359375 C-2.27734375 12.02359375 -2.27734375 11.36359375 -2.27734375 10.68359375 C-39.59801731 -7.05344512 -81.54823061 -7.2272321 -113.27734375 22.68359375 Z " fill="#925978" transform="translate(826.27734375,610.31640625)"/>
<path d="M0 0 C1.80688027 1.07164926 3.57221156 2.18606333 5.32836914 3.33862305 C6.24489258 3.93545898 7.16141602 4.53229492 8.10571289 5.1472168 C19.73909357 13.52867077 26.66554092 27.45725227 29.32836914 41.33862305 C29.59857279 49.01076904 28.90268681 56.47032634 25.32836914 63.33862305 C24.9274707 64.11463867 24.52657227 64.8906543 24.11352539 65.69018555 C16.61909897 79.10126441 6.0904137 88.76215454 -8.67163086 93.33862305 C-11.64163086 93.83362305 -11.64163086 93.83362305 -14.67163086 94.33862305 C-15.00163086 120.07862305 -15.33163086 145.81862305 -15.67163086 172.33862305 C-19.63163086 172.33862305 -23.59163086 172.33862305 -27.67163086 172.33862305 C-28.00163086 146.59862305 -28.33163086 120.85862305 -28.67163086 94.33862305 C-32.63163086 93.67862305 -36.59163086 93.01862305 -40.67163086 92.33862305 C-53.52005478 86.48233798 -64.27434994 73.64523237 -69.78491211 60.72924805 C-73.15208893 47.8538759 -71.60941647 32.37544712 -65.24584961 20.72924805 C-62.52170851 16.42130399 -59.46405861 12.76105785 -55.67163086 9.33862305 C-55.15987305 8.85780273 -54.64811523 8.37698242 -54.12084961 7.8815918 C-39.25758975 -5.61493152 -17.91976684 -9.92455648 0 0 Z " fill="#A24F77" transform="translate(840.671630859375,210.661376953125)"/>
<path d="M0 0 C2.90751572 3.47959636 5.12962481 6.96046721 7.1875 11 C7.7753125 12.1446875 7.7753125 12.1446875 8.375 13.3125 C9.61130189 17.40180626 9.76240982 21.74909817 10.1875 26 C33.9475 26 57.7075 26 82.1875 26 C82.1875 29.96 82.1875 33.92 82.1875 38 C58.4275 38 34.6675 38 10.1875 38 C9.8575 41.63 9.5275 45.26 9.1875 49 C7.734375 52.7421875 7.734375 52.7421875 5.9375 55.875 C5.35484375 56.92429687 4.7721875 57.97359375 4.171875 59.0546875 C2.10492197 62.1225666 -0.12090441 64.47140477 -2.8125 67 C-3.4725 67.66902344 -4.1325 68.33804688 -4.8125 69.02734375 C-15.89099066 79.60816783 -28.94760321 83.3566501 -44.05419922 83.23974609 C-55.99033651 82.20228045 -67.01340851 74.72308024 -74.8125 66 C-85.31650859 53.39518969 -88.89501622 40.64317584 -88.05517578 24.44238281 C-86.85051728 12.31823424 -79.02987271 0.67523535 -69.8125 -7 C-46.72268164 -24.28082925 -19.27926317 -21.25662349 0 0 Z " fill="#815795" transform="translate(302.8125,787)"/>
<path d="M0 0 C0.77730469 0.56074219 1.55460937 1.12148438 2.35546875 1.69921875 C12.69500372 9.40624231 20.4750916 19.56689007 22.75390625 32.60546875 C24.20192188 46.69489066 22.27384289 60.22770346 14 72 C5.15717056 82.73434376 -6.09323849 90.10440673 -20 92 C-27.25289092 92.48509087 -34.13493492 92.64040964 -41 90 C-42.13115234 89.63261719 -42.13115234 89.63261719 -43.28515625 89.2578125 C-55.85966724 84.86547945 -66.02588292 74.82112528 -72 63 C-73.98506943 57.80705837 -75 53.59959228 -75 48 C-98.76 48 -122.52 48 -147 48 C-147 44.04 -147 40.08 -147 36 C-123.24 36 -99.48 36 -75 36 C-74.67 32.37 -74.34 28.74 -74 25 C-69.17359426 12.1583133 -56.61864886 0.95720366 -44.52734375 -4.921875 C-28.60712108 -11.71319101 -13.75779801 -10.14607902 0 0 Z " fill="#B6515D" transform="translate(1400,777)"/>
<path d="M0 0 C3.96 0 7.92 0 12 0 C12.33 25.74 12.66 51.48 13 78 C18.28 79.65 23.56 81.3 29 83 C32.50251772 84.95076936 35.03725409 86.48511103 38 89 C38.76828125 89.64710937 39.5365625 90.29421875 40.328125 90.9609375 C46.3409353 96.4759986 49.90794755 102.48783322 53 110 C53.37640625 110.8971875 53.7528125 111.794375 54.140625 112.71875 C55.33460305 117.27757527 55.32910668 121.61945216 55.3125 126.3125 C55.32861328 127.21162109 55.34472656 128.11074219 55.36132812 129.03710938 C55.37044709 141.64863403 49.91676618 154.05285301 41 163 C28.60997329 172.65068154 14.16246792 179.28934399 -1.83447266 177.43310547 C-8.46493866 176.10701227 -14.33769328 172.5607974 -20 169 C-20.8353125 168.47664063 -21.670625 167.95328125 -22.53125 167.4140625 C-30.77113296 161.67783629 -36.11033098 154.16469961 -40 145 C-40.39167358 144.1332666 -40.39167358 144.1332666 -40.79125977 143.24902344 C-43.05700436 137.8683006 -43.50823576 133.05478781 -43.4375 127.25 C-43.42920166 126.37037598 -43.42090332 125.49075195 -43.41235352 124.58447266 C-43.06323147 111.0743193 -37.87703327 101.27053533 -28.875 91.375 C-20.38201006 83.35807452 -12.53070908 80.09649256 -1 78 C-0.67 52.26 -0.34 26.52 0 0 Z " fill="#975179" transform="translate(813,1256)"/>
<path d="M0 0 C7.80655559 5.65692434 12.41230118 13.71737229 15.42578125 22.7578125 C16.6867558 34.45774088 14.44012118 44.30464995 7.15234375 53.68359375 C0.90243281 60.33767874 -7.16064298 66.24303866 -16.54296875 66.99609375 C-29.11391848 67.26030619 -38.37287236 64.52784578 -47.57421875 55.7578125 C-54.56895851 48.38835454 -57.74510733 39.79903307 -58.07421875 29.6953125 C-57.68319139 17.76897798 -52.31948105 9.13016638 -43.88671875 1.0078125 C-31.01144112 -9.62828641 -13.58596906 -8.53503974 0 0 Z " fill="#3E1138" transform="translate(285.57421875,789.2421875)"/>
<path d="M0 0 C1.546875 0.8353125 1.546875 0.8353125 3.125 1.6875 C11.89818121 8.74418924 18.00191663 17.10365901 19.44140625 28.4921875 C19.83703479 40.15684835 16.77448848 48.90281575 9.21875 57.76953125 C1.58633543 65.44225787 -7.02420105 68.88072367 -17.75 69.25 C-27.73544562 69.08556901 -35.4738905 65.48443344 -43 59 C-45.40076878 56.51680139 -47.25290557 53.9755202 -49 51 C-49.4125 50.30777344 -49.825 49.61554687 -50.25 48.90234375 C-54.44074627 40.41899279 -54.59369712 29.13898636 -52.234375 20.05078125 C-51.30723423 17.88377367 -50.27571908 15.97803132 -49 14 C-48.443125 12.989375 -47.88625 11.97875 -47.3125 10.9375 C-35.60908234 -3.92900351 -17.17386585 -9.47865289 0 0 Z " fill="#5A1120" transform="translate(1391,787)"/>
<path d="M0 0 C8.18280321 6.01096 14.75236865 13.25710594 18 23 C18.62040129 35.03289938 18.27337927 45.92775074 11 56 C2.80795545 64.8937186 -6.08643463 68.07057291 -18 69 C-28.71677479 69.2572026 -37.33955811 65.3298703 -45.17578125 58.09765625 C-53.24775049 48.81575585 -54.49264771 39.83722973 -54 28 C-53.23090355 17.69114955 -48.03477173 10.68743579 -40.75 3.625 C-29.42854287 -5.80636564 -12.89391299 -7.33553994 0 0 Z " fill="#531325" transform="translate(837,223)"/>
<path d="M0 0 C8.69672194 5.1418575 16.70057484 12.21095429 19.73510742 22.22802734 C21.64172818 31.808194 21.49478022 43.89504431 16.140625 52.265625 C10.67735548 59.80074391 3.10910992 67.18886887 -6.3671875 69.015625 C-19.31227919 70.31419219 -28.37817726 69.4485312 -39.046875 61.640625 C-43.96963362 57.54470608 -47.08853991 53.0038747 -49.859375 47.265625 C-50.23191406 46.50765625 -50.60445312 45.7496875 -50.98828125 44.96875 C-53.93280528 35.83148261 -52.68697848 24.48260628 -48.53125 15.984375 C-38.39510216 -0.49870653 -18.26271641 -8.82076779 0 0 Z " fill="#470F2B" transform="translate(834.859375,1349.734375)"/>
<path d="M0 0 C2.70900975 0.94815341 3.73299056 1.6535896 5.5 3.875 C5.85644531 5.89282227 5.85644531 5.89282227 5.828125 8.19140625 C5.82296875 9.03896484 5.8178125 9.88652344 5.8125 10.75976562 C5.791875 11.64341797 5.77125 12.52707031 5.75 13.4375 C5.74484375 14.29408203 5.7396875 15.15066406 5.734375 16.03320312 C5.61536373 25.91857652 4.80140618 34.49195001 1 43.6875 C0.46596558 44.99062134 0.46596558 44.99062134 -0.07885742 46.32006836 C-10.81684858 71.55633653 -32.72172386 87.82812451 -57.5 97.875 C-63.41451687 100.17787854 -69.39734581 102.13635208 -75.5 103.875 C-76.67046875 104.2153125 -77.8409375 104.555625 -79.046875 104.90625 C-95.13590506 108.83750621 -113.47030093 108.81306023 -129.23046875 103.65234375 C-133.68280944 102.59378246 -137.51110754 102.68938838 -141.51171875 105.07421875 C-142.34123047 105.81091797 -142.34123047 105.81091797 -143.1875 106.5625 C-151.51400785 113.31152491 -161.71615702 117.52161955 -172.1875 119.42578125 C-173.70710875 119.71508803 -175.22663742 120.00481568 -176.74609375 120.29492188 C-179.10994997 120.74067066 -181.47431792 121.18278742 -183.84033203 121.61694336 C-197.8895489 124.20884792 -210.49035627 127.7591934 -222.5 135.875 C-223.5725 136.596875 -224.645 137.31875 -225.75 138.0625 C-229.70384263 142.10620269 -232.01050313 146.83421023 -234.5 151.875 C-237.875 152 -237.875 152 -241.5 151.875 C-243.5 149.875 -243.5 149.875 -243.72265625 148.02734375 C-243.08699367 139.23659543 -237.94069876 133.97043787 -231.6875 128.1875 C-221.66124727 119.84194859 -210.24034683 115.22132249 -197.625 112.375 C-196.7287793 112.16560791 -195.83255859 111.95621582 -194.90917969 111.74047852 C-190.29041797 110.67706477 -185.66363095 109.69585352 -181.0078125 108.80859375 C-179.68305908 108.55529297 -179.68305908 108.55529297 -178.33154297 108.296875 C-176.6685739 107.98485205 -175.00360006 107.6832428 -173.33642578 107.39453125 C-165.70106897 105.98087377 -159.03202435 103.02090187 -152.4375 98.9375 C-151.6021875 98.43089844 -150.766875 97.92429687 -149.90625 97.40234375 C-148.38053084 96.43390837 -146.87657941 95.42953342 -145.40625 94.37890625 C-140.48560696 90.93250349 -136.49631246 89.85228962 -130.5 90.875 C-129.73510254 91.18993408 -128.97020508 91.50486816 -128.18212891 91.8293457 C-107.4342024 99.91812863 -81.26615064 95.14961898 -61.4296875 86.703125 C-49.68168812 81.32949183 -38.04242111 75.72935279 -28.5 66.875 C-27.81035156 66.27558594 -27.12070312 65.67617188 -26.41015625 65.05859375 C-18.59681614 57.87511982 -12.42969269 48.09943087 -9.5 37.875 C-9.10361328 36.71484375 -9.10361328 36.71484375 -8.69921875 35.53125 C-6.21870712 27.34908841 -6.05846056 19.19807273 -5.96630859 10.70874023 C-5.94648926 9.74137939 -5.92666992 8.77401855 -5.90625 7.77734375 C-5.89916016 6.90585693 -5.89207031 6.03437012 -5.88476562 5.13647461 C-5.25681881 1.44569329 -3.77756033 -0.18887802 0 0 Z " fill="#925772" transform="translate(994.5,750.125)"/>
<path d="M0 0 C0.73105957 -0.01393799 1.46211914 -0.02787598 2.21533203 -0.04223633 C5.16420409 -0.01555441 7.30137718 0.0435688 9.8125 1.671875 C11.54057184 4.61499736 10.57629911 7.20229601 9.8125 10.375 C7.4093016 11.5765992 5.65526304 11.60824689 2.97265625 11.76953125 C-14.61358735 12.95898814 -27.91554379 15.34891907 -40.5 28.6875 C-46.78181054 36.18269849 -49.70468763 44.34766006 -52.29296875 53.6875 C-53.1875 56.375 -53.1875 56.375 -55.1875 58.375 C-58.00654885 58.73641652 -59.53590596 58.86407882 -61.84765625 57.12890625 C-63.5850987 54.85452823 -63.48742563 53.82117545 -63.1875 51 C-61.69459776 40.10499004 -56.91482579 30.92336923 -50.1875 22.375 C-49.57132813 21.55 -48.95515625 20.725 -48.3203125 19.875 C-36.1903215 5.65669553 -18.07980457 0.2251796 0 0 Z " fill="#895D87" transform="translate(713.1875,709.625)"/>
<path d="M0 0 C2.76966738 2.76966738 2.37323857 4.7477486 2.6875 8.625 C4.33372749 23.46273206 10.97102873 35.03718032 22.1171875 44.8671875 C27.46442772 48.96086225 32.54369161 49.91923179 39.1796875 50.578125 C42 51 42 51 45 53 C45.3125 56 45.3125 56 45 59 C43 61 43 61 39.796875 61.22265625 C27.40964291 60.93742903 17.58095548 57.48395779 8.125 49.0625 C-0.40161254 39.74197568 -4.88564624 27.03512978 -8 15 C-8.19207031 14.30519531 -8.38414062 13.61039063 -8.58203125 12.89453125 C-9.45379215 8.94309164 -9.9071723 4.61275076 -7.875 1 C-5.14368353 -0.45670212 -3.03989923 -0.32339354 0 0 Z " fill="#845983" transform="translate(613,769)"/>
<path d="M0 0 C2.48408199 2.48408199 2.25657908 3.96257174 2.27880859 7.35668945 C2.26454834 8.41762817 2.26454834 8.41762817 2.25 9.5 C2.23767334 10.58704224 2.23767334 10.58704224 2.22509766 11.69604492 C1.9632881 24.32624474 -1.59683912 34.95795248 -10.3125 44.4453125 C-20.32670761 53.67136488 -31.29106475 57.03033021 -44.609375 57.23046875 C-47 57 -47 57 -49 55 C-49.3125 52.5625 -49.3125 52.5625 -49 50 C-46.92812546 47.39924596 -45.32978555 46.5843775 -42.0859375 46.04296875 C-41.32893555 45.9035083 -40.57193359 45.76404785 -39.79199219 45.62036133 C-38.59558105 45.40609497 -38.59558105 45.40609497 -37.375 45.1875 C-27.95250762 43.2706969 -21.4129356 40.71231893 -15.625 32.6875 C-10.73004387 24.48404167 -9.60689939 17.20125652 -9.46557617 7.76367188 C-9.41280312 5.83691266 -9.21627814 3.91530933 -9 2 C-5.54754176 -0.30163882 -4.05261287 -0.34490322 0 0 Z " fill="#9D5363" transform="translate(1033,812)"/>
<path d="M0 0 C2 2 2 2 2.125 4.625 C2.08375 5.40875 2.0425 6.1925 2 7 C2.66 7 3.32 7 4 7 C4.02701408 9.10409639 4.04640223 11.20829178 4.0625 13.3125 C4.07410156 14.48425781 4.08570313 15.65601563 4.09765625 16.86328125 C4 20 4 20 3 23 C3.99 22.67 4.98 22.34 6 22 C6.74735843 31.1551408 1.94199523 36.31340069 -3.609375 42.984375 C-5.28394103 45.00342298 -5.28394103 45.00342298 -5 48 C-6 50 -6 50 -8.3125 51.3125 C-11.13760633 52.84637963 -11.13760633 52.84637963 -12.8125 55.5625 C-15.90457033 59.0079498 -18.50231744 59.17542486 -23 60 C-20.50425042 57.40026085 -17.88420299 55.05990748 -15.125 52.75 C-5.76706039 44.5748483 -0.39336624 34.36392069 1 22 C1.35229322 14.58377608 0.99669757 7.35064454 0 0 Z " fill="#78141C" transform="translate(1421,803)"/>
<path d="M0 0 C0.99 0.33 1.98 0.66 3 1 C3 1.66 3 2.32 3 3 C4.32 3.33 5.64 3.66 7 4 C7 5.65 7 7.3 7 9 C5.90300781 9.04898438 4.80601562 9.09796875 3.67578125 9.1484375 C2.22133075 9.22350591 0.76690484 9.29905197 -0.6875 9.375 C-1.7693457 9.42140625 -1.7693457 9.42140625 -2.87304688 9.46875 C-7.01475925 9.69569314 -10.16222916 10.30686581 -14 12 C-16.3125 11.625 -16.3125 11.625 -18 11 C-15.44595899 9.39460279 -13.09233523 8.03357645 -10.25 7 C-9.5075 6.67 -8.765 6.34 -8 6 C-7.67 5.01 -7.34 4.02 -7 3 C-6.21625 2.87625 -5.4325 2.7525 -4.625 2.625 C-1.85942178 2.20882007 -1.85942178 2.20882007 0 0 Z " fill="#6D142F" transform="translate(819,197)"/>
<path d="M0 0 C0.33 0 0.66 0 1 0 C1.60749086 6.07490865 1.60749086 6.07490865 -0.11328125 8.6953125 C-1.40013222 10.13803556 -2.69955886 11.56951474 -4 13 C-4 13.99 -4 14.98 -4 16 C-5 18 -5 18 -7.3125 19.3125 C-10.13760633 20.84637963 -10.13760633 20.84637963 -11.8125 23.5625 C-14.90457033 27.0079498 -17.50231744 27.17542486 -22 28 C-19.50425042 25.40026085 -16.88420299 23.05990748 -14.125 20.75 C-7.35208678 14.83314273 -3.27816049 8.3303843 0 0 Z " fill="#7A1620" transform="translate(1420,835)"/>
<path d="M0 0 C0.50126942 6.14055043 -0.68563565 9.02845347 -4 14 C-4.66 14.66 -5.32 15.32 -6 16 C-6.04254356 14.00045254 -6.04080783 11.99958364 -6 10 C-5.67 9.67 -5.34 9.34 -5 9 C-4.87625 7.865625 -4.7525 6.73125 -4.625 5.5625 C-4.41875 4.386875 -4.2125 3.21125 -4 2 C-1 0 -1 0 0 0 Z " fill="#640E19" transform="translate(1427,825)"/>
<path d="M0 0 C1.06863281 0.20367187 2.13726563 0.40734375 3.23828125 0.6171875 C4.04652344 0.78476563 4.85476563 0.95234375 5.6875 1.125 C5.6875 1.455 5.6875 1.785 5.6875 2.125 C4.80707031 2.17398438 3.92664063 2.22296875 3.01953125 2.2734375 C1.27736328 2.38558594 1.27736328 2.38558594 -0.5 2.5 C-1.64855469 2.56960937 -2.79710937 2.63921875 -3.98046875 2.7109375 C-7.12389364 3.1015624 -9.42117991 3.90331545 -12.3125 5.125 C-14.625 4.75 -14.625 4.75 -16.3125 4.125 C-10.48971474 0.46496355 -6.92120988 -1.36903053 0 0 Z " fill="#761C3C" transform="translate(817.3125,203.875)"/>
<path d="M0 0 C0.93423645 3.01031744 1.04449911 3.86650268 0 7 C-0.14492123 8.40664926 -0.24628931 9.8181133 -0.31640625 11.23046875 C-0.35830078 12.03291016 -0.40019531 12.83535156 -0.44335938 13.66210938 C-0.50233398 14.91217773 -0.50233398 14.91217773 -0.5625 16.1875 C-0.60568359 17.03248047 -0.64886719 17.87746094 -0.69335938 18.74804688 C-0.79931518 20.83184433 -0.9001502 22.91590103 -1 25 C-1.33 25 -1.66 25 -2 25 C-2.24992327 21.95876504 -2.47549694 18.91891767 -2.6875 15.875 C-2.76033203 15.0190625 -2.83316406 14.163125 -2.90820312 13.28125 C-3.25472029 7.98157574 -2.95606552 4.6354755 0 0 Z " fill="#6B244D" transform="translate(771,240)"/>
<path d="M0 0 C0.99 0.33 1.98 0.66 3 1 C1.9171875 1.7734375 1.9171875 1.7734375 0.8125 2.5625 C-2.50056842 5.43382597 -4.55715737 8.3706338 -7 12 C-7.33 10.68 -7.66 9.36 -8 8 C-7.071875 7.6596875 -7.071875 7.6596875 -6.125 7.3125 C-3.37739861 5.61545208 -3.06789821 3.97485929 -2 1 C-1.34 0.67 -0.68 0.34 0 0 Z " fill="#6E1D45" transform="translate(785,217)"/>
<path d="M0 0 C0.66 0.66 1.32 1.32 2 2 C-4.15034169 10.44646925 -4.15034169 10.44646925 -8 14 C-8.66 13.67 -9.32 13.34 -10 13 C-9.44570313 12.39671875 -8.89140625 11.7934375 -8.3203125 11.171875 C-7.59585938 10.37265625 -6.87140625 9.5734375 -6.125 8.75 C-5.04605469 7.56664062 -5.04605469 7.56664062 -3.9453125 6.359375 C-2.23064517 4.27973832 -1.07019127 2.45580733 0 0 Z " fill="#5A1225" transform="translate(862,279)"/>
<path d="M0 0 C-0.5625 1.8125 -0.5625 1.8125 -2 4 C-5.5 5.8125 -5.5 5.8125 -9 7 C-9.66 6.67 -10.32 6.34 -11 6 C-9.73608512 4.99126984 -8.46359117 3.99328178 -7.1875 3 C-6.47980469 2.443125 -5.77210937 1.88625 -5.04296875 1.3125 C-3 0 -3 0 0 0 Z " fill="#67101B" transform="translate(1409,856)"/>
<path d="M0 0 C2 2 2 2 2.125 4.625 C2.08375 5.40875 2.0425 6.1925 2 7 C2.66 7 3.32 7 4 7 C4 8.65 4 10.3 4 12 C3.34 12 2.68 12 2 12 C1.34 8.04 0.68 4.08 0 0 Z " fill="#6A0B16" transform="translate(1421,803)"/>
<path d="M0 0 C1.32 0 2.64 0 4 0 C5.125 2.3125 5.125 2.3125 6 5 C5.01 6.485 5.01 6.485 4 8 C0 2.25 0 2.25 0 0 Z " fill="#6A1728" transform="translate(857,223)"/>
<path d="M0 0 C0.99 0.33 1.98 0.66 3 1 C3 1.66 3 2.32 3 3 C1.35 3.66 -0.3 4.32 -2 5 C-2.66 4.34 -3.32 3.68 -4 3 C-2.1875 1.4375 -2.1875 1.4375 0 0 Z " fill="#5C1127" transform="translate(819,197)"/>
</svg>
